# xmcd
#
# Track frame offsets:
#	150
#	15788
#	40008
#	58198
#	77488
#	94141
#	113403
#	134563
#	153671
#	181483
#	196938
#	217048
#	235600
#	252695
#
# Disc length: 3605 seconds
#
# Revision: 2
# Processed by: cddbd v1.5.1PL0 Copyright (c) Steve Scherf et al.
# Submitted via: Jack! The Knife
#
DISCID=b60e130e
DTITLE=Megadeth - The Arsenal Of Megadeth (Vol. 2)
DYEAR=2005
DGENRE=Heavy Metal
TTITLE0=Take No Prisoners
TTITLE1=Tornado Of Souls
TTITLE2=Symphony Of Destruction
TTITLE3=Foreclosure Of a Dream
TTITLE4=This Was My Life
TTITLE5=Countdown To Extinction
TTITLE6=Psychotron
TTITLE7=Captive Honour
TTITLE8=Ashes In Your Mouth
TTITLE9=Train Of Consequences
TTITLE10=A Tout Le Monde
TTITLE11=Family Tree
TTITLE12=Angry Again
TTITLE13=Diadems
EXTD=
EXTT0=
EXTT1=
EXTT2=
EXTT3=
EXTT4=
EXTT5=
EXTT6=
EXTT7=
EXTT8=
EXTT9=
EXTT10=
EXTT11=
EXTT12=
EXTT13=
PLAYORDER=
